<mxfile host="app.diagrams.net" modified="2023-10-06T02:30:13.614Z" agent="Mozilla/5.0 (Windows NT 10.0; Win64; x64) AppleWebKit/537.36 (KHTML, like Gecko) Chrome/117.0.0.0 Safari/537.36" etag="-lN29cv2y1Lo4Lr7MtXQ" version="22.0.3" type="device" pages="3">
  <diagram name="Página-1" id="Ra7ChDzIolq2GieamkBe">
    <mxGraphModel dx="1114" dy="610" grid="1" gridSize="10" guides="1" tooltips="1" connect="1" arrows="1" fold="1" page="1" pageScale="1" pageWidth="827" pageHeight="1169" math="0" shadow="0">
      <root>
        <mxCell id="0" />
        <mxCell id="1" parent="0" />
        <mxCell id="wpPTcS09X6X-ckQ6P5qO-2" style="edgeStyle=orthogonalEdgeStyle;rounded=0;orthogonalLoop=1;jettySize=auto;html=1;exitX=0.5;exitY=1;exitDx=0;exitDy=0;" edge="1" parent="1" source="wpPTcS09X6X-ckQ6P5qO-1">
          <mxGeometry relative="1" as="geometry">
            <mxPoint x="335" y="140" as="targetPoint" />
          </mxGeometry>
        </mxCell>
        <mxCell id="wpPTcS09X6X-ckQ6P5qO-1" value="&lt;font style=&quot;vertical-align: inherit;&quot;&gt;&lt;font style=&quot;vertical-align: inherit;&quot;&gt;Inicio&lt;/font&gt;&lt;/font&gt;" style="ellipse;whiteSpace=wrap;html=1;" vertex="1" parent="1">
          <mxGeometry x="270" y="20" width="130" height="80" as="geometry" />
        </mxCell>
        <mxCell id="wpPTcS09X6X-ckQ6P5qO-3" value="&lt;font style=&quot;vertical-align: inherit;&quot;&gt;&lt;font style=&quot;vertical-align: inherit;&quot;&gt;pass usuario&amp;nbsp;&lt;br&gt;user pass&lt;br&gt;&lt;/font&gt;&lt;/font&gt;" style="rounded=0;whiteSpace=wrap;html=1;" vertex="1" parent="1">
          <mxGeometry x="270" y="140" width="130" height="70" as="geometry" />
        </mxCell>
        <mxCell id="wpPTcS09X6X-ckQ6P5qO-7" style="edgeStyle=orthogonalEdgeStyle;rounded=0;orthogonalLoop=1;jettySize=auto;html=1;exitX=0.5;exitY=1;exitDx=0;exitDy=0;" edge="1" parent="1">
          <mxGeometry relative="1" as="geometry">
            <mxPoint x="345" y="390" as="targetPoint" />
            <mxPoint x="345" y="340" as="sourcePoint" />
          </mxGeometry>
        </mxCell>
        <mxCell id="wpPTcS09X6X-ckQ6P5qO-25" style="edgeStyle=orthogonalEdgeStyle;rounded=0;orthogonalLoop=1;jettySize=auto;html=1;exitX=0.5;exitY=1;exitDx=0;exitDy=0;" edge="1" parent="1" source="wpPTcS09X6X-ckQ6P5qO-8">
          <mxGeometry relative="1" as="geometry">
            <mxPoint x="343" y="510" as="targetPoint" />
          </mxGeometry>
        </mxCell>
        <mxCell id="wpPTcS09X6X-ckQ6P5qO-8" value="&lt;font style=&quot;vertical-align: inherit;&quot;&gt;&lt;font style=&quot;vertical-align: inherit;&quot;&gt;User&amp;nbsp;&lt;/font&gt;&lt;/font&gt;" style="rounded=0;whiteSpace=wrap;html=1;" vertex="1" parent="1">
          <mxGeometry x="280" y="390" width="125" height="60" as="geometry" />
        </mxCell>
        <mxCell id="wpPTcS09X6X-ckQ6P5qO-28" value="&lt;font style=&quot;vertical-align: inherit;&quot;&gt;&lt;font style=&quot;vertical-align: inherit;&quot;&gt;Usuario&lt;/font&gt;&lt;/font&gt;" style="shape=document;whiteSpace=wrap;html=1;boundedLbl=1;" vertex="1" parent="1">
          <mxGeometry x="280" y="270" width="120" height="80" as="geometry" />
        </mxCell>
        <mxCell id="wpPTcS09X6X-ckQ6P5qO-33" style="edgeStyle=orthogonalEdgeStyle;rounded=0;orthogonalLoop=1;jettySize=auto;html=1;exitX=0.5;exitY=1;exitDx=0;exitDy=0;entryX=0.458;entryY=-0.075;entryDx=0;entryDy=0;entryPerimeter=0;" edge="1" parent="1" source="wpPTcS09X6X-ckQ6P5qO-3" target="wpPTcS09X6X-ckQ6P5qO-28">
          <mxGeometry relative="1" as="geometry" />
        </mxCell>
        <mxCell id="wpPTcS09X6X-ckQ6P5qO-48" style="edgeStyle=orthogonalEdgeStyle;rounded=0;orthogonalLoop=1;jettySize=auto;html=1;exitX=0.5;exitY=1;exitDx=0;exitDy=0;" edge="1" parent="1" source="wpPTcS09X6X-ckQ6P5qO-40">
          <mxGeometry relative="1" as="geometry">
            <mxPoint x="343" y="770" as="targetPoint" />
          </mxGeometry>
        </mxCell>
        <mxCell id="wpPTcS09X6X-ckQ6P5qO-40" value="&lt;font style=&quot;vertical-align: inherit;&quot;&gt;&lt;font style=&quot;vertical-align: inherit;&quot;&gt;Pass&lt;/font&gt;&lt;/font&gt;" style="rounded=0;whiteSpace=wrap;html=1;" vertex="1" parent="1">
          <mxGeometry x="282.5" y="630" width="120" height="60" as="geometry" />
        </mxCell>
        <mxCell id="wpPTcS09X6X-ckQ6P5qO-45" style="edgeStyle=orthogonalEdgeStyle;rounded=0;orthogonalLoop=1;jettySize=auto;html=1;" edge="1" parent="1">
          <mxGeometry relative="1" as="geometry">
            <mxPoint x="340" y="630" as="targetPoint" />
            <mxPoint x="340" y="570" as="sourcePoint" />
          </mxGeometry>
        </mxCell>
        <mxCell id="wpPTcS09X6X-ckQ6P5qO-46" value="&lt;font style=&quot;vertical-align: inherit;&quot;&gt;&lt;font style=&quot;vertical-align: inherit;&quot;&gt;Password&lt;/font&gt;&lt;/font&gt;" style="shape=document;whiteSpace=wrap;html=1;boundedLbl=1;" vertex="1" parent="1">
          <mxGeometry x="275" y="510" width="120" height="80" as="geometry" />
        </mxCell>
        <mxCell id="wpPTcS09X6X-ckQ6P5qO-50" style="edgeStyle=orthogonalEdgeStyle;rounded=0;orthogonalLoop=1;jettySize=auto;html=1;exitX=0.5;exitY=1;exitDx=0;exitDy=0;" edge="1" parent="1" source="wpPTcS09X6X-ckQ6P5qO-49">
          <mxGeometry relative="1" as="geometry">
            <mxPoint x="343" y="960" as="targetPoint" />
          </mxGeometry>
        </mxCell>
        <mxCell id="wpPTcS09X6X-ckQ6P5qO-49" value="&lt;font style=&quot;vertical-align: inherit;&quot;&gt;&lt;font style=&quot;vertical-align: inherit;&quot;&gt;&lt;font style=&quot;vertical-align: inherit;&quot;&gt;&lt;font style=&quot;vertical-align: inherit;&quot;&gt;Usuario==usuario &lt;/font&gt;&lt;/font&gt;&lt;br&gt;&lt;font style=&quot;vertical-align: inherit;&quot;&gt;&lt;font style=&quot;vertical-align: inherit;&quot;&gt;and&lt;br&gt;&lt;/font&gt;&lt;/font&gt;&lt;font style=&quot;vertical-align: inherit;&quot;&gt;&lt;font style=&quot;vertical-align: inherit;&quot;&gt;Pass==pass&lt;/font&gt;&lt;/font&gt;&lt;br&gt;&lt;br&gt;&lt;/font&gt;&lt;/font&gt;" style="rhombus;whiteSpace=wrap;html=1;" vertex="1" parent="1">
          <mxGeometry x="252.5" y="770" width="180" height="120" as="geometry" />
        </mxCell>
        <mxCell id="wpPTcS09X6X-ckQ6P5qO-51" value="&lt;font style=&quot;vertical-align: inherit;&quot;&gt;&lt;font style=&quot;vertical-align: inherit;&quot;&gt;si&lt;/font&gt;&lt;/font&gt;" style="text;html=1;align=center;verticalAlign=middle;resizable=0;points=[];autosize=1;strokeColor=none;fillColor=none;" vertex="1" parent="1">
          <mxGeometry x="345" y="908" width="30" height="30" as="geometry" />
        </mxCell>
        <mxCell id="wpPTcS09X6X-ckQ6P5qO-53" style="edgeStyle=orthogonalEdgeStyle;rounded=0;orthogonalLoop=1;jettySize=auto;html=1;exitX=0.5;exitY=1;exitDx=0;exitDy=0;" edge="1" parent="1" source="wpPTcS09X6X-ckQ6P5qO-52">
          <mxGeometry relative="1" as="geometry">
            <mxPoint x="343" y="1080" as="targetPoint" />
          </mxGeometry>
        </mxCell>
        <mxCell id="wpPTcS09X6X-ckQ6P5qO-52" value="&lt;font style=&quot;vertical-align: inherit;&quot;&gt;&lt;font style=&quot;vertical-align: inherit;&quot;&gt;Ingresar&lt;/font&gt;&lt;/font&gt;" style="rounded=1;whiteSpace=wrap;html=1;" vertex="1" parent="1">
          <mxGeometry x="282.5" y="960" width="120" height="60" as="geometry" />
        </mxCell>
        <mxCell id="wpPTcS09X6X-ckQ6P5qO-55" style="edgeStyle=orthogonalEdgeStyle;rounded=0;orthogonalLoop=1;jettySize=auto;html=1;exitX=1;exitY=0.5;exitDx=0;exitDy=0;entryX=1.054;entryY=0.429;entryDx=0;entryDy=0;entryPerimeter=0;" edge="1" parent="1" source="wpPTcS09X6X-ckQ6P5qO-54" target="wpPTcS09X6X-ckQ6P5qO-3">
          <mxGeometry relative="1" as="geometry">
            <mxPoint x="500" y="160" as="targetPoint" />
            <Array as="points">
              <mxPoint x="501" y="1120" />
              <mxPoint x="501" y="170" />
            </Array>
          </mxGeometry>
        </mxCell>
        <mxCell id="wpPTcS09X6X-ckQ6P5qO-54" value="Fin" style="ellipse;whiteSpace=wrap;html=1;" vertex="1" parent="1">
          <mxGeometry x="282.5" y="1080" width="120" height="80" as="geometry" />
        </mxCell>
      </root>
    </mxGraphModel>
  </diagram>
  <diagram id="VUhwDQKz-OwgYbePvH3k" name="Página-2">
    <mxGraphModel dx="1114" dy="2000" grid="1" gridSize="10" guides="1" tooltips="1" connect="1" arrows="1" fold="1" page="1" pageScale="1" pageWidth="980" pageHeight="1390" math="0" shadow="0">
      <root>
        <mxCell id="0" />
        <mxCell id="1" parent="0" />
        <mxCell id="xoHc5e67llsqey-DNyZm-10" style="edgeStyle=orthogonalEdgeStyle;rounded=0;orthogonalLoop=1;jettySize=auto;html=1;exitX=0.5;exitY=1;exitDx=0;exitDy=0;entryX=0.5;entryY=0;entryDx=0;entryDy=0;" edge="1" parent="1" source="Tu-NJn4qh0ZXqr52rupM-1" target="Tu-NJn4qh0ZXqr52rupM-3">
          <mxGeometry relative="1" as="geometry" />
        </mxCell>
        <mxCell id="Tu-NJn4qh0ZXqr52rupM-1" value="Inicio&amp;nbsp;" style="ellipse;whiteSpace=wrap;html=1;" vertex="1" parent="1">
          <mxGeometry x="280" y="-1380" width="120" height="80" as="geometry" />
        </mxCell>
        <mxCell id="xoHc5e67llsqey-DNyZm-11" style="edgeStyle=orthogonalEdgeStyle;rounded=0;orthogonalLoop=1;jettySize=auto;html=1;exitX=0.5;exitY=1;exitDx=0;exitDy=0;entryX=0.5;entryY=0;entryDx=0;entryDy=0;" edge="1" parent="1" source="Tu-NJn4qh0ZXqr52rupM-3" target="Tu-NJn4qh0ZXqr52rupM-4">
          <mxGeometry relative="1" as="geometry" />
        </mxCell>
        <mxCell id="Tu-NJn4qh0ZXqr52rupM-3" value="Cuenta&amp;nbsp;" style="rounded=0;whiteSpace=wrap;html=1;" vertex="1" parent="1">
          <mxGeometry x="280" y="-1240" width="120" height="30" as="geometry" />
        </mxCell>
        <mxCell id="xoHc5e67llsqey-DNyZm-12" style="edgeStyle=orthogonalEdgeStyle;rounded=0;orthogonalLoop=1;jettySize=auto;html=1;exitX=1;exitY=0.5;exitDx=0;exitDy=0;" edge="1" parent="1" source="Tu-NJn4qh0ZXqr52rupM-4">
          <mxGeometry relative="1" as="geometry">
            <mxPoint x="480" y="-1095" as="targetPoint" />
          </mxGeometry>
        </mxCell>
        <mxCell id="xoHc5e67llsqey-DNyZm-15" style="edgeStyle=orthogonalEdgeStyle;rounded=0;orthogonalLoop=1;jettySize=auto;html=1;exitX=0.5;exitY=1;exitDx=0;exitDy=0;" edge="1" parent="1" source="Tu-NJn4qh0ZXqr52rupM-4">
          <mxGeometry relative="1" as="geometry">
            <mxPoint x="340" y="-990" as="targetPoint" />
          </mxGeometry>
        </mxCell>
        <mxCell id="Tu-NJn4qh0ZXqr52rupM-4" value="Cuenta&amp;nbsp;&lt;br&gt;si&amp;nbsp;&lt;br&gt;existe&amp;nbsp;" style="rhombus;whiteSpace=wrap;html=1;" vertex="1" parent="1">
          <mxGeometry x="267.5" y="-1150" width="145" height="110" as="geometry" />
        </mxCell>
        <mxCell id="xoHc5e67llsqey-DNyZm-13" value="no&amp;nbsp;" style="text;html=1;align=center;verticalAlign=middle;resizable=0;points=[];autosize=1;strokeColor=none;fillColor=none;" vertex="1" parent="1">
          <mxGeometry x="420" y="-1120" width="40" height="30" as="geometry" />
        </mxCell>
        <mxCell id="xoHc5e67llsqey-DNyZm-19" style="edgeStyle=orthogonalEdgeStyle;rounded=0;orthogonalLoop=1;jettySize=auto;html=1;exitX=0.5;exitY=1;exitDx=0;exitDy=0;entryX=1;entryY=0.5;entryDx=0;entryDy=0;" edge="1" parent="1" source="xoHc5e67llsqey-DNyZm-14" target="xoHc5e67llsqey-DNyZm-18">
          <mxGeometry relative="1" as="geometry">
            <mxPoint x="540" y="-940" as="targetPoint" />
          </mxGeometry>
        </mxCell>
        <mxCell id="xoHc5e67llsqey-DNyZm-14" value="Registro&amp;nbsp;" style="rounded=0;whiteSpace=wrap;html=1;" vertex="1" parent="1">
          <mxGeometry x="480" y="-1125" width="120" height="60" as="geometry" />
        </mxCell>
        <mxCell id="xoHc5e67llsqey-DNyZm-17" value="si&lt;br&gt;" style="text;html=1;align=center;verticalAlign=middle;resizable=0;points=[];autosize=1;strokeColor=none;fillColor=none;" vertex="1" parent="1">
          <mxGeometry x="335" y="-1042" width="30" height="30" as="geometry" />
        </mxCell>
        <mxCell id="xoHc5e67llsqey-DNyZm-20" style="edgeStyle=orthogonalEdgeStyle;rounded=0;orthogonalLoop=1;jettySize=auto;html=1;exitX=0.5;exitY=1;exitDx=0;exitDy=0;" edge="1" parent="1" source="xoHc5e67llsqey-DNyZm-18">
          <mxGeometry relative="1" as="geometry">
            <mxPoint x="340" y="-870" as="targetPoint" />
          </mxGeometry>
        </mxCell>
        <mxCell id="xoHc5e67llsqey-DNyZm-18" value="Login&amp;nbsp;" style="rhombus;whiteSpace=wrap;html=1;" vertex="1" parent="1">
          <mxGeometry x="300" y="-990" width="80" height="80" as="geometry" />
        </mxCell>
        <mxCell id="xoHc5e67llsqey-DNyZm-21" value="si" style="text;html=1;align=center;verticalAlign=middle;resizable=0;points=[];autosize=1;strokeColor=none;fillColor=none;" vertex="1" parent="1">
          <mxGeometry x="345" y="-912" width="30" height="30" as="geometry" />
        </mxCell>
        <mxCell id="xoHc5e67llsqey-DNyZm-23" style="edgeStyle=orthogonalEdgeStyle;rounded=0;orthogonalLoop=1;jettySize=auto;html=1;exitX=0.5;exitY=1;exitDx=0;exitDy=0;" edge="1" parent="1" source="xoHc5e67llsqey-DNyZm-22">
          <mxGeometry relative="1" as="geometry">
            <mxPoint x="340" y="-780" as="targetPoint" />
          </mxGeometry>
        </mxCell>
        <mxCell id="xoHc5e67llsqey-DNyZm-22" value="Password,Usuario&amp;nbsp;" style="rounded=0;whiteSpace=wrap;html=1;" vertex="1" parent="1">
          <mxGeometry x="280" y="-870" width="120" height="40" as="geometry" />
        </mxCell>
        <mxCell id="xoHc5e67llsqey-DNyZm-28" style="edgeStyle=orthogonalEdgeStyle;rounded=0;orthogonalLoop=1;jettySize=auto;html=1;exitX=0.963;exitY=0.388;exitDx=0;exitDy=0;entryX=1;entryY=0.5;entryDx=0;entryDy=0;exitPerimeter=0;" edge="1" parent="1" source="xoHc5e67llsqey-DNyZm-26" target="xoHc5e67llsqey-DNyZm-22">
          <mxGeometry relative="1" as="geometry">
            <mxPoint x="459" y="-860" as="targetPoint" />
            <mxPoint x="399" y="-742" as="sourcePoint" />
            <Array as="points">
              <mxPoint x="377" y="-742" />
              <mxPoint x="460" y="-742" />
              <mxPoint x="460" y="-850" />
            </Array>
          </mxGeometry>
        </mxCell>
        <mxCell id="6XaNJc6brKFDZD4xwgj2-3" style="edgeStyle=orthogonalEdgeStyle;rounded=0;orthogonalLoop=1;jettySize=auto;html=1;exitX=0.5;exitY=1;exitDx=0;exitDy=0;" edge="1" parent="1" source="xoHc5e67llsqey-DNyZm-26">
          <mxGeometry relative="1" as="geometry">
            <mxPoint x="340" y="-630" as="targetPoint" />
          </mxGeometry>
        </mxCell>
        <mxCell id="xoHc5e67llsqey-DNyZm-26" value="si" style="rhombus;whiteSpace=wrap;html=1;" vertex="1" parent="1">
          <mxGeometry x="300" y="-780" width="80" height="80" as="geometry" />
        </mxCell>
        <mxCell id="6XaNJc6brKFDZD4xwgj2-5" style="edgeStyle=orthogonalEdgeStyle;rounded=0;orthogonalLoop=1;jettySize=auto;html=1;exitX=1;exitY=0.5;exitDx=0;exitDy=0;" edge="1" parent="1" target="6XaNJc6brKFDZD4xwgj2-6">
          <mxGeometry relative="1" as="geometry">
            <mxPoint x="410" y="-590" as="targetPoint" />
            <mxPoint x="380" y="-590" as="sourcePoint" />
          </mxGeometry>
        </mxCell>
        <mxCell id="6XaNJc6brKFDZD4xwgj2-8" style="edgeStyle=orthogonalEdgeStyle;rounded=0;orthogonalLoop=1;jettySize=auto;html=1;exitX=1;exitY=0.5;exitDx=0;exitDy=0;" edge="1" parent="1" source="6XaNJc6brKFDZD4xwgj2-6" target="6XaNJc6brKFDZD4xwgj2-9">
          <mxGeometry relative="1" as="geometry">
            <mxPoint x="520" y="-590" as="targetPoint" />
          </mxGeometry>
        </mxCell>
        <mxCell id="6XaNJc6brKFDZD4xwgj2-13" style="edgeStyle=orthogonalEdgeStyle;rounded=0;orthogonalLoop=1;jettySize=auto;html=1;exitX=0.5;exitY=1;exitDx=0;exitDy=0;" edge="1" parent="1" source="6XaNJc6brKFDZD4xwgj2-6">
          <mxGeometry relative="1" as="geometry">
            <mxPoint x="450" y="-520" as="targetPoint" />
          </mxGeometry>
        </mxCell>
        <mxCell id="6XaNJc6brKFDZD4xwgj2-6" value="enter&lt;br&gt;==2" style="rhombus;whiteSpace=wrap;html=1;" vertex="1" parent="1">
          <mxGeometry x="410" y="-630" width="80" height="80" as="geometry" />
        </mxCell>
        <mxCell id="6XaNJc6brKFDZD4xwgj2-12" style="edgeStyle=orthogonalEdgeStyle;rounded=0;orthogonalLoop=1;jettySize=auto;html=1;exitX=0.5;exitY=1;exitDx=0;exitDy=0;" edge="1" parent="1" source="6XaNJc6brKFDZD4xwgj2-7">
          <mxGeometry relative="1" as="geometry">
            <mxPoint x="340" y="-520" as="targetPoint" />
          </mxGeometry>
        </mxCell>
        <mxCell id="6XaNJc6brKFDZD4xwgj2-48" style="edgeStyle=orthogonalEdgeStyle;rounded=0;orthogonalLoop=1;jettySize=auto;html=1;exitX=0;exitY=0.5;exitDx=0;exitDy=0;" edge="1" parent="1">
          <mxGeometry relative="1" as="geometry">
            <mxPoint x="450" y="-175" as="targetPoint" />
            <mxPoint x="300" y="-585" as="sourcePoint" />
            <Array as="points">
              <mxPoint x="131" y="-585" />
            </Array>
          </mxGeometry>
        </mxCell>
        <mxCell id="6XaNJc6brKFDZD4xwgj2-7" value="Enter&lt;br&gt;==1" style="rhombus;whiteSpace=wrap;html=1;" vertex="1" parent="1">
          <mxGeometry x="300" y="-630" width="80" height="80" as="geometry" />
        </mxCell>
        <mxCell id="6XaNJc6brKFDZD4xwgj2-10" style="edgeStyle=orthogonalEdgeStyle;rounded=0;orthogonalLoop=1;jettySize=auto;html=1;exitX=1;exitY=0.5;exitDx=0;exitDy=0;" edge="1" parent="1" source="6XaNJc6brKFDZD4xwgj2-9">
          <mxGeometry relative="1" as="geometry">
            <mxPoint x="630" y="-590" as="targetPoint" />
          </mxGeometry>
        </mxCell>
        <mxCell id="6XaNJc6brKFDZD4xwgj2-14" style="edgeStyle=orthogonalEdgeStyle;rounded=0;orthogonalLoop=1;jettySize=auto;html=1;exitX=0.5;exitY=1;exitDx=0;exitDy=0;" edge="1" parent="1" source="6XaNJc6brKFDZD4xwgj2-9">
          <mxGeometry relative="1" as="geometry">
            <mxPoint x="560" y="-520" as="targetPoint" />
          </mxGeometry>
        </mxCell>
        <mxCell id="6XaNJc6brKFDZD4xwgj2-9" value="enter&lt;br&gt;==3" style="rhombus;whiteSpace=wrap;html=1;" vertex="1" parent="1">
          <mxGeometry x="520" y="-630" width="80" height="80" as="geometry" />
        </mxCell>
        <mxCell id="6XaNJc6brKFDZD4xwgj2-27" style="edgeStyle=orthogonalEdgeStyle;rounded=0;orthogonalLoop=1;jettySize=auto;html=1;exitX=1;exitY=0.5;exitDx=0;exitDy=0;" edge="1" parent="1" source="6XaNJc6brKFDZD4xwgj2-11">
          <mxGeometry relative="1" as="geometry">
            <mxPoint x="815" y="-520" as="targetPoint" />
          </mxGeometry>
        </mxCell>
        <mxCell id="6XaNJc6brKFDZD4xwgj2-11" value="tecnico&amp;nbsp;" style="rhombus;whiteSpace=wrap;html=1;" vertex="1" parent="1">
          <mxGeometry x="630" y="-630" width="80" height="80" as="geometry" />
        </mxCell>
        <mxCell id="6XaNJc6brKFDZD4xwgj2-25" style="edgeStyle=orthogonalEdgeStyle;rounded=0;orthogonalLoop=1;jettySize=auto;html=1;exitX=0.5;exitY=1;exitDx=0;exitDy=0;" edge="1" parent="1" source="6XaNJc6brKFDZD4xwgj2-16">
          <mxGeometry relative="1" as="geometry">
            <mxPoint x="570" y="-420" as="targetPoint" />
          </mxGeometry>
        </mxCell>
        <mxCell id="6XaNJc6brKFDZD4xwgj2-16" value="familiar" style="rounded=0;whiteSpace=wrap;html=1;" vertex="1" parent="1">
          <mxGeometry x="520" y="-520" width="100" height="60" as="geometry" />
        </mxCell>
        <mxCell id="6XaNJc6brKFDZD4xwgj2-20" style="edgeStyle=orthogonalEdgeStyle;rounded=0;orthogonalLoop=1;jettySize=auto;html=1;exitX=0.5;exitY=1;exitDx=0;exitDy=0;" edge="1" parent="1" source="6XaNJc6brKFDZD4xwgj2-17">
          <mxGeometry relative="1" as="geometry">
            <mxPoint x="450" y="-420" as="targetPoint" />
            <Array as="points">
              <mxPoint x="450" y="-430" />
              <mxPoint x="450" y="-430" />
            </Array>
          </mxGeometry>
        </mxCell>
        <mxCell id="6XaNJc6brKFDZD4xwgj2-17" value="Psicólogo" style="rounded=0;whiteSpace=wrap;html=1;" vertex="1" parent="1">
          <mxGeometry x="400" y="-520" width="100" height="60" as="geometry" />
        </mxCell>
        <mxCell id="6XaNJc6brKFDZD4xwgj2-19" style="edgeStyle=orthogonalEdgeStyle;rounded=0;orthogonalLoop=1;jettySize=auto;html=1;exitX=0.5;exitY=1;exitDx=0;exitDy=0;" edge="1" parent="1" source="6XaNJc6brKFDZD4xwgj2-18">
          <mxGeometry relative="1" as="geometry">
            <mxPoint x="335" y="-420" as="targetPoint" />
          </mxGeometry>
        </mxCell>
        <mxCell id="6XaNJc6brKFDZD4xwgj2-18" value="Páciente&amp;nbsp;" style="rounded=0;whiteSpace=wrap;html=1;" vertex="1" parent="1">
          <mxGeometry x="290" y="-520" width="90" height="60" as="geometry" />
        </mxCell>
        <mxCell id="6XaNJc6brKFDZD4xwgj2-22" value="si" style="text;html=1;align=center;verticalAlign=middle;resizable=0;points=[];autosize=1;strokeColor=none;fillColor=none;" vertex="1" parent="1">
          <mxGeometry x="335" y="-462" width="30" height="30" as="geometry" />
        </mxCell>
        <mxCell id="6XaNJc6brKFDZD4xwgj2-23" value="si" style="text;html=1;align=center;verticalAlign=middle;resizable=0;points=[];autosize=1;strokeColor=none;fillColor=none;" vertex="1" parent="1">
          <mxGeometry x="460" y="-460" width="30" height="30" as="geometry" />
        </mxCell>
        <mxCell id="6XaNJc6brKFDZD4xwgj2-26" value="si" style="text;html=1;align=center;verticalAlign=middle;resizable=0;points=[];autosize=1;strokeColor=none;fillColor=none;" vertex="1" parent="1">
          <mxGeometry x="575" y="-462" width="30" height="30" as="geometry" />
        </mxCell>
        <mxCell id="6XaNJc6brKFDZD4xwgj2-31" style="edgeStyle=orthogonalEdgeStyle;rounded=0;orthogonalLoop=1;jettySize=auto;html=1;exitX=0.5;exitY=1;exitDx=0;exitDy=0;" edge="1" parent="1" source="6XaNJc6brKFDZD4xwgj2-30">
          <mxGeometry relative="1" as="geometry">
            <mxPoint x="820" y="-440" as="targetPoint" />
            <Array as="points">
              <mxPoint x="820" y="-460" />
              <mxPoint x="821" y="-460" />
            </Array>
          </mxGeometry>
        </mxCell>
        <mxCell id="6XaNJc6brKFDZD4xwgj2-34" style="edgeStyle=orthogonalEdgeStyle;rounded=0;orthogonalLoop=1;jettySize=auto;html=1;exitX=1;exitY=0.5;exitDx=0;exitDy=0;" edge="1" parent="1" target="6XaNJc6brKFDZD4xwgj2-35">
          <mxGeometry relative="1" as="geometry">
            <mxPoint x="920" y="-320" as="targetPoint" />
            <mxPoint x="900" y="-500" as="sourcePoint" />
          </mxGeometry>
        </mxCell>
        <mxCell id="6XaNJc6brKFDZD4xwgj2-30" value="sistema&amp;nbsp;" style="rounded=0;whiteSpace=wrap;html=1;" vertex="1" parent="1">
          <mxGeometry x="760" y="-520" width="120" height="40" as="geometry" />
        </mxCell>
        <mxCell id="6XaNJc6brKFDZD4xwgj2-32" value="Opc" style="rounded=1;whiteSpace=wrap;html=1;" vertex="1" parent="1">
          <mxGeometry x="780" y="-440" width="120" height="30" as="geometry" />
        </mxCell>
        <mxCell id="6XaNJc6brKFDZD4xwgj2-33" style="edgeStyle=orthogonalEdgeStyle;rounded=0;orthogonalLoop=1;jettySize=auto;html=1;exitX=0;exitY=0.25;exitDx=0;exitDy=0;entryX=0;entryY=0.5;entryDx=0;entryDy=0;" edge="1" parent="1" source="6XaNJc6brKFDZD4xwgj2-30" target="6XaNJc6brKFDZD4xwgj2-30">
          <mxGeometry relative="1" as="geometry" />
        </mxCell>
        <mxCell id="6XaNJc6brKFDZD4xwgj2-35" value=".Cambiar contraseña&amp;nbsp;&lt;br&gt;.Proteger cuenta&lt;br&gt;.Vincular cuenta&amp;nbsp;&lt;br&gt;.Recuperar contraseña&amp;nbsp;&amp;nbsp;" style="whiteSpace=wrap;html=1;aspect=fixed;" vertex="1" parent="1">
          <mxGeometry x="650" y="-260" width="120" height="120" as="geometry" />
        </mxCell>
        <mxCell id="6XaNJc6brKFDZD4xwgj2-38" value="no" style="text;html=1;align=center;verticalAlign=middle;resizable=0;points=[];autosize=1;strokeColor=none;fillColor=none;" vertex="1" parent="1">
          <mxGeometry x="890" y="-522" width="40" height="30" as="geometry" />
        </mxCell>
        <mxCell id="6XaNJc6brKFDZD4xwgj2-39" value="configuración" style="rounded=1;whiteSpace=wrap;html=1;" vertex="1" parent="1">
          <mxGeometry x="640" y="-410" width="120" height="60" as="geometry" />
        </mxCell>
        <mxCell id="6XaNJc6brKFDZD4xwgj2-40" value="hola como te puedo ayudar&amp;nbsp;" style="ellipse;shape=cloud;whiteSpace=wrap;html=1;" vertex="1" parent="1">
          <mxGeometry x="257.5" y="-440" width="122.5" height="90" as="geometry" />
        </mxCell>
        <mxCell id="6XaNJc6brKFDZD4xwgj2-45" style="edgeStyle=orthogonalEdgeStyle;rounded=0;orthogonalLoop=1;jettySize=auto;html=1;exitX=0.55;exitY=0.95;exitDx=0;exitDy=0;exitPerimeter=0;" edge="1" parent="1" source="6XaNJc6brKFDZD4xwgj2-41">
          <mxGeometry relative="1" as="geometry">
            <mxPoint x="446" y="-200" as="targetPoint" />
          </mxGeometry>
        </mxCell>
        <mxCell id="6XaNJc6brKFDZD4xwgj2-41" value="tu cita esta programada alas&amp;nbsp;&lt;br&gt;5" style="ellipse;shape=cloud;whiteSpace=wrap;html=1;" vertex="1" parent="1">
          <mxGeometry x="380" y="-320" width="120" height="80" as="geometry" />
        </mxCell>
        <mxCell id="6XaNJc6brKFDZD4xwgj2-42" value="tu familia lista para conocer tus niveles de emoción&amp;nbsp;" style="ellipse;shape=cloud;whiteSpace=wrap;html=1;" vertex="1" parent="1">
          <mxGeometry x="510" y="-430" width="120" height="80" as="geometry" />
        </mxCell>
        <mxCell id="6XaNJc6brKFDZD4xwgj2-44" style="edgeStyle=orthogonalEdgeStyle;rounded=0;orthogonalLoop=1;jettySize=auto;html=1;exitX=0.5;exitY=1;exitDx=0;exitDy=0;" edge="1" parent="1" source="6XaNJc6brKFDZD4xwgj2-43">
          <mxGeometry relative="1" as="geometry">
            <mxPoint x="450" y="-310" as="targetPoint" />
          </mxGeometry>
        </mxCell>
        <mxCell id="6XaNJc6brKFDZD4xwgj2-43" value="programar cita&amp;nbsp;&lt;br&gt;hora==hora&amp;nbsp;&lt;br&gt;día==día&lt;br&gt;mes ==mes&amp;nbsp;&amp;nbsp;" style="rounded=0;whiteSpace=wrap;html=1;" vertex="1" parent="1">
          <mxGeometry x="390" y="-420" width="120" height="70" as="geometry" />
        </mxCell>
        <mxCell id="6XaNJc6brKFDZD4xwgj2-50" style="edgeStyle=orthogonalEdgeStyle;rounded=0;orthogonalLoop=1;jettySize=auto;html=1;exitX=1;exitY=0.5;exitDx=0;exitDy=0;" edge="1" parent="1" source="6XaNJc6brKFDZD4xwgj2-49">
          <mxGeometry relative="1" as="geometry">
            <mxPoint x="550" y="-170" as="targetPoint" />
          </mxGeometry>
        </mxCell>
        <mxCell id="6XaNJc6brKFDZD4xwgj2-51" style="edgeStyle=orthogonalEdgeStyle;rounded=0;orthogonalLoop=1;jettySize=auto;html=1;exitX=0.5;exitY=1;exitDx=0;exitDy=0;" edge="1" parent="1" source="6XaNJc6brKFDZD4xwgj2-49">
          <mxGeometry relative="1" as="geometry">
            <mxPoint x="490" y="-120" as="targetPoint" />
          </mxGeometry>
        </mxCell>
        <mxCell id="6XaNJc6brKFDZD4xwgj2-49" value="deseas salir" style="rhombus;whiteSpace=wrap;html=1;" vertex="1" parent="1">
          <mxGeometry x="450" y="-210" width="80" height="80" as="geometry" />
        </mxCell>
        <mxCell id="6XaNJc6brKFDZD4xwgj2-57" style="edgeStyle=orthogonalEdgeStyle;rounded=0;orthogonalLoop=1;jettySize=auto;html=1;exitX=0.5;exitY=1;exitDx=0;exitDy=0;" edge="1" parent="1" source="6XaNJc6brKFDZD4xwgj2-54">
          <mxGeometry relative="1" as="geometry">
            <mxPoint x="490" y="-50" as="targetPoint" />
          </mxGeometry>
        </mxCell>
        <mxCell id="6XaNJc6brKFDZD4xwgj2-54" value="si" style="rounded=0;whiteSpace=wrap;html=1;" vertex="1" parent="1">
          <mxGeometry x="430" y="-120" width="120" height="20" as="geometry" />
        </mxCell>
        <mxCell id="6XaNJc6brKFDZD4xwgj2-56" value="No&amp;nbsp;" style="rounded=0;whiteSpace=wrap;html=1;" vertex="1" parent="1">
          <mxGeometry x="560" y="-190" width="80" height="30" as="geometry" />
        </mxCell>
        <mxCell id="6XaNJc6brKFDZD4xwgj2-58" value="Fin&amp;nbsp;" style="ellipse;whiteSpace=wrap;html=1;" vertex="1" parent="1">
          <mxGeometry x="430" y="-50" width="120" height="80" as="geometry" />
        </mxCell>
      </root>
    </mxGraphModel>
  </diagram>
  <diagram id="T8kAOgZSSbRBQLz6zae6" name="Página-3">
    <mxGraphModel dx="1114" dy="2000" grid="1" gridSize="10" guides="1" tooltips="1" connect="1" arrows="1" fold="1" page="1" pageScale="1" pageWidth="980" pageHeight="1390" math="0" shadow="0">
      <root>
        <mxCell id="0" />
        <mxCell id="1" parent="0" />
        <mxCell id="WRqYmsPt4mcXBpgIeCFr-4" style="edgeStyle=orthogonalEdgeStyle;rounded=0;orthogonalLoop=1;jettySize=auto;html=1;exitX=0.5;exitY=1;exitDx=0;exitDy=0;" edge="1" parent="1" source="WRqYmsPt4mcXBpgIeCFr-1">
          <mxGeometry relative="1" as="geometry">
            <mxPoint x="450" y="-490" as="targetPoint" />
          </mxGeometry>
        </mxCell>
        <mxCell id="WRqYmsPt4mcXBpgIeCFr-1" value="Inicio&amp;nbsp;" style="ellipse;whiteSpace=wrap;html=1;" vertex="1" parent="1">
          <mxGeometry x="390" y="-610" width="120" height="80" as="geometry" />
        </mxCell>
        <mxCell id="O4zKxo6uyQVdqL535Wi_-1" style="edgeStyle=orthogonalEdgeStyle;rounded=0;orthogonalLoop=1;jettySize=auto;html=1;exitX=1;exitY=0.5;exitDx=0;exitDy=0;" edge="1" parent="1">
          <mxGeometry relative="1" as="geometry">
            <mxPoint x="540" y="-450.5" as="targetPoint" />
            <mxPoint x="490" y="-450.5" as="sourcePoint" />
          </mxGeometry>
        </mxCell>
        <mxCell id="O4zKxo6uyQVdqL535Wi_-2" style="edgeStyle=orthogonalEdgeStyle;rounded=0;orthogonalLoop=1;jettySize=auto;html=1;exitX=0.5;exitY=1;exitDx=0;exitDy=0;" edge="1" parent="1">
          <mxGeometry relative="1" as="geometry">
            <mxPoint x="450" y="-380" as="targetPoint" />
            <mxPoint x="450" y="-430" as="sourcePoint" />
          </mxGeometry>
        </mxCell>
        <mxCell id="O4zKxo6uyQVdqL535Wi_-3" value="Ya tienes cuentan&amp;nbsp;" style="rhombus;whiteSpace=wrap;html=1;" vertex="1" parent="1">
          <mxGeometry x="410" y="-490" width="80" height="80" as="geometry" />
        </mxCell>
        <mxCell id="bWxX1GBXAaYHU4z555JX-1" style="edgeStyle=orthogonalEdgeStyle;rounded=0;orthogonalLoop=1;jettySize=auto;html=1;exitX=1;exitY=0.5;exitDx=0;exitDy=0;" edge="1" parent="1" source="O4zKxo6uyQVdqL535Wi_-6">
          <mxGeometry relative="1" as="geometry">
            <mxPoint x="740" y="-460" as="targetPoint" />
          </mxGeometry>
        </mxCell>
        <mxCell id="O4zKxo6uyQVdqL535Wi_-6" value="SI" style="rounded=0;whiteSpace=wrap;html=1;" vertex="1" parent="1">
          <mxGeometry x="540" y="-480" width="110" height="40" as="geometry" />
        </mxCell>
        <mxCell id="bWxX1GBXAaYHU4z555JX-4" style="edgeStyle=orthogonalEdgeStyle;rounded=0;orthogonalLoop=1;jettySize=auto;html=1;exitX=0.5;exitY=1;exitDx=0;exitDy=0;" edge="1" parent="1" source="O4zKxo6uyQVdqL535Wi_-7">
          <mxGeometry relative="1" as="geometry">
            <mxPoint x="460" y="-310" as="targetPoint" />
          </mxGeometry>
        </mxCell>
        <mxCell id="pHuOXP9fja9MSYGQ0Ose-22" style="edgeStyle=orthogonalEdgeStyle;rounded=0;orthogonalLoop=1;jettySize=auto;html=1;exitX=1;exitY=0.5;exitDx=0;exitDy=0;" edge="1" parent="1" source="O4zKxo6uyQVdqL535Wi_-7">
          <mxGeometry relative="1" as="geometry">
            <mxPoint x="570" y="-365" as="targetPoint" />
          </mxGeometry>
        </mxCell>
        <mxCell id="O4zKxo6uyQVdqL535Wi_-7" value="No&amp;nbsp;" style="rounded=0;whiteSpace=wrap;html=1;" vertex="1" parent="1">
          <mxGeometry x="400" y="-380" width="120" height="30" as="geometry" />
        </mxCell>
        <mxCell id="bWxX1GBXAaYHU4z555JX-3" value="Digita tu password y contraseña&amp;nbsp;" style="rounded=1;whiteSpace=wrap;html=1;" vertex="1" parent="1">
          <mxGeometry x="740" y="-500" width="120" height="60" as="geometry" />
        </mxCell>
        <mxCell id="bWxX1GBXAaYHU4z555JX-10" style="edgeStyle=orthogonalEdgeStyle;rounded=0;orthogonalLoop=1;jettySize=auto;html=1;exitX=0.5;exitY=1;exitDx=0;exitDy=0;" edge="1" parent="1" source="bWxX1GBXAaYHU4z555JX-5">
          <mxGeometry relative="1" as="geometry">
            <mxPoint x="455" y="-220" as="targetPoint" />
          </mxGeometry>
        </mxCell>
        <mxCell id="pHuOXP9fja9MSYGQ0Ose-6" style="edgeStyle=orthogonalEdgeStyle;rounded=0;orthogonalLoop=1;jettySize=auto;html=1;exitX=1;exitY=0.5;exitDx=0;exitDy=0;entryX=0;entryY=0.5;entryDx=0;entryDy=0;" edge="1" parent="1" source="bWxX1GBXAaYHU4z555JX-5" target="bWxX1GBXAaYHU4z555JX-7">
          <mxGeometry relative="1" as="geometry" />
        </mxCell>
        <mxCell id="bWxX1GBXAaYHU4z555JX-5" value="agraga un correo" style="rounded=0;whiteSpace=wrap;html=1;" vertex="1" parent="1">
          <mxGeometry x="390" y="-310" width="110" height="60" as="geometry" />
        </mxCell>
        <mxCell id="bWxX1GBXAaYHU4z555JX-8" style="edgeStyle=orthogonalEdgeStyle;rounded=0;orthogonalLoop=1;jettySize=auto;html=1;exitX=1;exitY=0.5;exitDx=0;exitDy=0;" edge="1" parent="1" source="bWxX1GBXAaYHU4z555JX-7">
          <mxGeometry relative="1" as="geometry">
            <mxPoint x="740" y="-280" as="targetPoint" />
          </mxGeometry>
        </mxCell>
        <mxCell id="bWxX1GBXAaYHU4z555JX-7" value="Verifica el correo&amp;nbsp;" style="rounded=1;whiteSpace=wrap;html=1;" vertex="1" parent="1">
          <mxGeometry x="560" y="-310" width="130" height="60" as="geometry" />
        </mxCell>
        <mxCell id="bWxX1GBXAaYHU4z555JX-9" value="Didita digitos&lt;br&gt;_ _ _ _" style="rounded=1;whiteSpace=wrap;html=1;" vertex="1" parent="1">
          <mxGeometry x="740" y="-320" width="120" height="60" as="geometry" />
        </mxCell>
        <mxCell id="bWxX1GBXAaYHU4z555JX-12" style="edgeStyle=orthogonalEdgeStyle;rounded=0;orthogonalLoop=1;jettySize=auto;html=1;exitX=0.5;exitY=1;exitDx=0;exitDy=0;" edge="1" parent="1" source="bWxX1GBXAaYHU4z555JX-11">
          <mxGeometry relative="1" as="geometry">
            <mxPoint x="463" y="-160" as="targetPoint" />
          </mxGeometry>
        </mxCell>
        <mxCell id="bWxX1GBXAaYHU4z555JX-11" value="Agrega tu edad&amp;nbsp;" style="rounded=0;whiteSpace=wrap;html=1;" vertex="1" parent="1">
          <mxGeometry x="390" y="-220" width="145" height="30" as="geometry" />
        </mxCell>
        <mxCell id="pHuOXP9fja9MSYGQ0Ose-1" style="edgeStyle=orthogonalEdgeStyle;rounded=0;orthogonalLoop=1;jettySize=auto;html=1;exitX=0.5;exitY=1;exitDx=0;exitDy=0;" edge="1" parent="1" source="bWxX1GBXAaYHU4z555JX-13">
          <mxGeometry relative="1" as="geometry">
            <mxPoint x="475" y="-110" as="targetPoint" />
          </mxGeometry>
        </mxCell>
        <mxCell id="bWxX1GBXAaYHU4z555JX-13" value="edad==edad" style="rounded=0;whiteSpace=wrap;html=1;" vertex="1" parent="1">
          <mxGeometry x="415" y="-160" width="120" height="20" as="geometry" />
        </mxCell>
        <mxCell id="pHuOXP9fja9MSYGQ0Ose-3" style="edgeStyle=orthogonalEdgeStyle;rounded=0;orthogonalLoop=1;jettySize=auto;html=1;exitX=0.5;exitY=1;exitDx=0;exitDy=0;" edge="1" parent="1" source="pHuOXP9fja9MSYGQ0Ose-2">
          <mxGeometry relative="1" as="geometry">
            <mxPoint x="470" y="-60" as="targetPoint" />
          </mxGeometry>
        </mxCell>
        <mxCell id="pHuOXP9fja9MSYGQ0Ose-2" value="digita contraseña&amp;nbsp;" style="rounded=0;whiteSpace=wrap;html=1;" vertex="1" parent="1">
          <mxGeometry x="410" y="-110" width="120" height="30" as="geometry" />
        </mxCell>
        <mxCell id="pHuOXP9fja9MSYGQ0Ose-8" style="edgeStyle=orthogonalEdgeStyle;rounded=0;orthogonalLoop=1;jettySize=auto;html=1;exitX=0.5;exitY=1;exitDx=0;exitDy=0;" edge="1" parent="1" source="pHuOXP9fja9MSYGQ0Ose-4">
          <mxGeometry relative="1" as="geometry">
            <mxPoint x="478" y="10" as="targetPoint" />
          </mxGeometry>
        </mxCell>
        <mxCell id="pHuOXP9fja9MSYGQ0Ose-4" value="contraseña correcta&amp;nbsp;" style="rounded=0;whiteSpace=wrap;html=1;" vertex="1" parent="1">
          <mxGeometry x="415" y="-60" width="125" height="30" as="geometry" />
        </mxCell>
        <mxCell id="pHuOXP9fja9MSYGQ0Ose-10" style="edgeStyle=orthogonalEdgeStyle;rounded=0;orthogonalLoop=1;jettySize=auto;html=1;exitX=1;exitY=0.5;exitDx=0;exitDy=0;" edge="1" parent="1" source="pHuOXP9fja9MSYGQ0Ose-9" target="pHuOXP9fja9MSYGQ0Ose-11">
          <mxGeometry relative="1" as="geometry">
            <mxPoint x="590" y="40" as="targetPoint" />
          </mxGeometry>
        </mxCell>
        <mxCell id="pHuOXP9fja9MSYGQ0Ose-12" style="edgeStyle=orthogonalEdgeStyle;rounded=0;orthogonalLoop=1;jettySize=auto;html=1;exitX=0.5;exitY=1;exitDx=0;exitDy=0;" edge="1" parent="1" source="pHuOXP9fja9MSYGQ0Ose-9" target="pHuOXP9fja9MSYGQ0Ose-13">
          <mxGeometry relative="1" as="geometry">
            <mxPoint x="480" y="110" as="targetPoint" />
          </mxGeometry>
        </mxCell>
        <mxCell id="pHuOXP9fja9MSYGQ0Ose-9" value="deseas crear una copia de seguridad&amp;nbsp;" style="rounded=0;whiteSpace=wrap;html=1;" vertex="1" parent="1">
          <mxGeometry x="420" y="10" width="120" height="60" as="geometry" />
        </mxCell>
        <mxCell id="pHuOXP9fja9MSYGQ0Ose-11" value="si&amp;nbsp;" style="rounded=0;whiteSpace=wrap;html=1;" vertex="1" parent="1">
          <mxGeometry x="570" y="10" width="80" height="60" as="geometry" />
        </mxCell>
        <mxCell id="pHuOXP9fja9MSYGQ0Ose-14" style="edgeStyle=orthogonalEdgeStyle;rounded=0;orthogonalLoop=1;jettySize=auto;html=1;exitX=0.5;exitY=1;exitDx=0;exitDy=0;" edge="1" parent="1" source="pHuOXP9fja9MSYGQ0Ose-13">
          <mxGeometry relative="1" as="geometry">
            <mxPoint x="480" y="230" as="targetPoint" />
          </mxGeometry>
        </mxCell>
        <mxCell id="pHuOXP9fja9MSYGQ0Ose-13" value="No&amp;nbsp;" style="rounded=0;whiteSpace=wrap;html=1;" vertex="1" parent="1">
          <mxGeometry x="445" y="120" width="70" height="60" as="geometry" />
        </mxCell>
        <mxCell id="pHuOXP9fja9MSYGQ0Ose-19" style="edgeStyle=orthogonalEdgeStyle;rounded=0;orthogonalLoop=1;jettySize=auto;html=1;exitX=0.5;exitY=1;exitDx=0;exitDy=0;" edge="1" parent="1" source="pHuOXP9fja9MSYGQ0Ose-17">
          <mxGeometry relative="1" as="geometry">
            <mxPoint x="490" y="310" as="targetPoint" />
          </mxGeometry>
        </mxCell>
        <mxCell id="pHuOXP9fja9MSYGQ0Ose-17" value="Bienvenido&amp;nbsp;" style="rounded=1;whiteSpace=wrap;html=1;" vertex="1" parent="1">
          <mxGeometry x="430" y="230" width="120" height="60" as="geometry" />
        </mxCell>
        <mxCell id="pHuOXP9fja9MSYGQ0Ose-21" value="Fin&amp;nbsp;" style="ellipse;whiteSpace=wrap;html=1;" vertex="1" parent="1">
          <mxGeometry x="430" y="310" width="120" height="80" as="geometry" />
        </mxCell>
        <mxCell id="pHuOXP9fja9MSYGQ0Ose-23" value="Crear una cuenta&amp;nbsp;" style="rounded=1;whiteSpace=wrap;html=1;" vertex="1" parent="1">
          <mxGeometry x="570" y="-400" width="120" height="60" as="geometry" />
        </mxCell>
      </root>
    </mxGraphModel>
  </diagram>
</mxfile>
